<?xml version="1.0" encoding="UTF-8"?><svg id="_イヤー_2" xmlns="http://www.w3.org/2000/svg" viewBox="0 0 184.77 40.11"><defs><style>.cls-1{fill:#fff;}</style></defs><g id="_イヤー_1-2"><g><path class="cls-1" d="M20.92,18.63c6.72-5.41,11.35-9.02,13.89-10.84C42.11,2.6,47.26,0,50.24,0c.86,0,1.62,.27,2.29,.82,.66,.55,1,1.25,1,2.11,0,2.36-2.84,6.35-8.53,11.95l-11.84,11.51c-6.66,6.62-9.99,10.34-9.99,11.16,0,.49,.21,.79,.64,.91,.1,.02,.5,.03,1.22,.03s1.07,.15,1.07,.44c0,.31-.49,.6-1.46,.85-.8,.21-1.45,.32-1.93,.32-.76,0-1.43-.22-1.99-.66-.57-.44-.85-1.04-.85-1.8,0-.86,.42-1.88,1.27-3.08,.85-1.19,3.6-4.15,8.25-8.88l13.92-13.86c1.5-1.45,2.63-2.56,3.37-3.34,1.48-1.54,2.49-2.76,3.02-3.66,.8-1.39,1.2-2.37,1.2-2.96,0-.43-.2-.64-.59-.64-1.13,0-4.11,1.45-8.94,4.34C29.92,12.42,17.53,22.92,4.21,37.06c-1.51,1.6-2.39,2.4-2.67,2.4s-.59-.18-.97-.53c-.38-.35-.57-.67-.57-.97,0-.84,2.6-3.94,7.79-9.32l14.44-15.15c5.2-5.76,7.79-9.53,7.79-11.31,0-.59-.24-.88-.73-.88-2.13,0-7.12,3.37-14.97,10.11-3.56,3.05-6.66,6.1-9.32,9.17-.43,.49-.76,.73-1,.73-.74,0-1.11-.37-1.11-1.11,0-.94,2.17-3.46,6.5-7.56,3.09-2.91,6.19-5.47,9.32-7.68C23.27,1.74,26.8,.12,29.3,.12c1.62,0,2.43,.87,2.43,2.61,0,1.91-1.46,4.79-4.39,8.61-2.05,2.7-4.19,5.13-6.42,7.29Z"/><path class="cls-1" d="M43.62,34.72c-.98,.23-2.81,1.13-5.51,2.7-2.38,1.37-4.19,2.05-5.42,2.05-.23,0-.35-.13-.35-.39,0-.36,.25-.58,.76-.66,1.19-.19,2.87-.92,5.04-2.18,2.38-1.36,4.33-2.21,5.83-2.56,.9-2.17,2.75-4.44,5.57-6.83,2.99-2.56,5.54-3.84,7.65-3.84,1.56,0,2.34,.66,2.34,1.99,0,1.74-1.65,3.63-4.95,5.68-2.42,1.52-4.9,2.71-7.44,3.57-.27,.62-.41,1.27-.41,1.95,0,1.01,.35,1.67,1.06,1.98,.35,.14,1.02,.22,2.01,.26,.71,.02,1.06,.19,1.06,.51,0,.5-1.21,.75-3.62,.75-2.55,0-3.82-1.1-3.82-3.31,0-.51,.07-1.06,.21-1.67Zm3.87-1.64c1.8-.88,3.69-2.07,5.68-3.57,2.66-1.97,3.98-3.53,3.98-4.69,0-.47-.22-.7-.64-.7-1.27,0-3,1.17-5.19,3.52-1.95,2.13-3.23,3.95-3.84,5.45Z"/><path class="cls-1" d="M69.9,25.93l-7.85,6.59-5.36,4.25c-2.56,1.8-4.66,2.7-6.3,2.7-.23,0-.35-.13-.35-.39,0-.34,.2-.56,.59-.66,2.58-.6,6.06-2.74,10.46-6.41l8.35-6.97c1.91-1.6,5-4.77,9.26-9.51l8.2-9.37c1.29-1.54,2.2-2.31,2.72-2.31,.68,0,1.03,.34,1.03,1.03,0,.86-.84,2.32-2.52,4.39l-3.63,4.13-11.69,13.48c2.89-2.07,5.01-3.11,6.36-3.11,1.58,0,2.37,.78,2.37,2.34,0,1.76-1.54,3.26-4.63,4.51-2.5,1.02-4.83,1.53-7,1.55,.7,1.66,1.61,3.54,2.72,5.65,.37,.45,.98,.67,1.82,.67,.27,0,.41,.16,.41,.47,0,.43-.76,.64-2.29,.64-.74,0-1.38-.19-1.9-.59-.49-.33-1.56-2.26-3.22-5.77l-2.93,3.52c-1.64,1.91-2.62,2.87-2.93,2.87-.84,0-1.26-.49-1.26-1.46,0-.57,1.53-2.71,4.6-6.42l4.98-5.83Zm-.88,5.57c2.93-.37,5.34-1.18,7.24-2.41,1.89-1.24,2.84-2.29,2.84-3.15,0-.45-.28-.68-.85-.68-2.15,0-5.23,2.08-9.23,6.24Z"/><path class="cls-1" d="M87.33,31.64l-6.04,4.6c-3.09,2.15-5.39,3.22-6.91,3.22-.23,0-.35-.12-.35-.36,0-.38,.2-.61,.59-.69,1.19-.21,2.21-.56,3.05-1.02,1.46-.8,3.85-2.5,7.15-5.12l7.73-6.34c1.48-1.31,2.39-1.96,2.72-1.96,.49,0,1.03,.27,1.63,.82,1.13-.86,2.13-1.29,3.01-1.29,1.32,0,1.99,.71,1.99,2.14,0,2.13-1.7,5.03-5.1,8.7-3.46,3.71-6.25,5.57-8.38,5.57-1.99,0-2.99-1.04-2.99-3.13,0-1.09,.63-2.8,1.9-5.13Zm7.06-3.6c-3.98,3.49-5.98,6.33-5.98,8.52,0,.94,.45,1.41,1.35,1.41,1.46,0,3.75-1.78,6.86-5.33-1.64-.39-2.46-1.45-2.46-3.17,0-.45,.08-.93,.23-1.44Zm2.87,3.66c.72-.69,1.45-1.62,2.17-2.8,.8-1.35,1.2-2.43,1.2-3.24,0-.75-.32-1.12-.97-1.12-.96,0-1.92,.6-2.89,1.81-.97,1.21-1.45,2.3-1.45,3.28,0,1.1,.64,1.79,1.93,2.06Z"/><path class="cls-1" d="M115.02,30.59c5.37-4.55,9.14-6.83,11.31-6.83,1.39,0,2.08,.65,2.08,1.96,0,1.15-1.57,3.24-4.72,6.25-3.15,3.02-4.72,4.84-4.72,5.46s.36,.96,1.07,1.01c.71,.05,1.07,.22,1.07,.51,0,.39-.71,.59-2.12,.59-1.63,0-2.45-.72-2.45-2.17,0-1.21,.78-2.75,2.34-4.61,.8-.96,2.25-2.44,4.34-4.43,1.56-1.49,2.34-2.39,2.34-2.7,0-.25-.18-.38-.53-.38-1.11,0-3.54,1.49-7.27,4.46-3.11,2.47-5.41,4.49-6.91,6.08-1.91,2.02-3.08,3.02-3.49,3.02-.31,0-.6-.15-.85-.45-.25-.3-.38-.62-.38-.95,0-.45,1.35-2.27,4.04-5.45l4.83-5.71-7.5,6.09-5.54,4.25c-2.81,1.91-4.97,2.87-6.47,2.87-.25,0-.38-.12-.38-.35,0-.35,.27-.59,.82-.7,.74-.14,1.61-.43,2.61-.88,1.43-.62,4.34-2.71,8.73-6.27,3.94-3.2,6.79-5.65,8.53-7.35,.29-.29,.75-.64,1.38-1.05,.31-.12,.64-.18,1-.18,.33,0,.67,.11,1.01,.34,.34,.22,.51,.49,.51,.81,0,.35-1.56,2.61-4.69,6.77Z"/><path class="cls-1" d="M133.59,31.64l-6.04,4.6c-3.09,2.15-5.39,3.22-6.91,3.22-.23,0-.35-.12-.35-.36,0-.38,.2-.61,.59-.69,1.19-.21,2.21-.56,3.05-1.02,1.46-.8,3.85-2.5,7.15-5.12l7.73-6.34c1.48-1.31,2.39-1.96,2.72-1.96,.49,0,1.03,.27,1.63,.82,1.13-.86,2.13-1.29,3.01-1.29,1.32,0,1.99,.71,1.99,2.14,0,2.13-1.7,5.03-5.1,8.7-3.46,3.71-6.25,5.57-8.38,5.57-1.99,0-2.99-1.04-2.99-3.13,0-1.09,.63-2.8,1.9-5.13Zm7.06-3.6c-3.98,3.49-5.98,6.33-5.98,8.52,0,.94,.45,1.41,1.35,1.41,1.46,0,3.75-1.78,6.86-5.33-1.64-.39-2.46-1.45-2.46-3.17,0-.45,.08-.93,.23-1.44Zm2.87,3.66c.72-.69,1.45-1.62,2.17-2.8,.8-1.35,1.2-2.43,1.2-3.24,0-.75-.32-1.12-.97-1.12-.96,0-1.92,.6-2.89,1.81-.97,1.21-1.45,2.3-1.45,3.28,0,1.1,.64,1.79,1.93,2.06Z"/><path class="cls-1" d="M165.18,20.33l-10.55,.41c-.59,0-.88-.16-.88-.47,0-.25,.48-.45,1.44-.59,1.35-.21,3.24-.4,5.68-.56,2.71-.16,4.62-.3,5.71-.44l4.19-5.01c2.25-2.66,3.6-3.98,4.07-3.98,.59,0,.88,.37,.88,1.11,0,.8-1.78,3.43-5.33,7.88,2.05-.14,3.75-.21,5.1-.21,.9,0,1.35,.18,1.35,.53,0,.39-1.08,.65-3.25,.79l-4.45,.15-6.53,8.16c-4.12,5.36-6.18,8.56-6.18,9.59,0,.49,.33,.74,1,.75,.66,.01,1,.18,1,.5,0,.38-.43,.57-1.29,.57-1.74,0-2.61-.7-2.61-2.11,0-1.11,.57-2.71,1.7-4.78l2.55-4.28-8.67,6.83c-3.61,2.85-6.4,4.28-8.35,4.28-.23,0-.35-.13-.35-.39,0-.34,.2-.56,.59-.66,.66-.14,1.67-.48,3.02-1.02,1.31-.68,4.22-2.79,8.73-6.32,3.34-2.59,5.44-4.28,6.3-5.06,1.54-1.4,3.26-3.3,5.16-5.67Z"/><path class="cls-1" d="M168.87,34.72c-.98,.23-2.81,1.13-5.51,2.7-2.38,1.37-4.19,2.05-5.42,2.05-.23,0-.35-.13-.35-.39,0-.36,.25-.58,.76-.66,1.19-.19,2.87-.92,5.04-2.18,2.38-1.36,4.33-2.21,5.83-2.56,.9-2.17,2.75-4.44,5.57-6.83,2.99-2.56,5.54-3.84,7.65-3.84,1.56,0,2.34,.66,2.34,1.99,0,1.74-1.65,3.63-4.95,5.68-2.42,1.52-4.9,2.71-7.44,3.57-.27,.62-.41,1.27-.41,1.95,0,1.01,.35,1.67,1.06,1.98,.35,.14,1.02,.22,2.01,.26,.71,.02,1.06,.19,1.06,.51,0,.5-1.21,.75-3.62,.75-2.55,0-3.82-1.1-3.82-3.31,0-.51,.07-1.06,.21-1.67Zm3.87-1.64c1.8-.88,3.69-2.07,5.68-3.57,2.66-1.97,3.98-3.53,3.98-4.69,0-.47-.21-.7-.64-.7-1.27,0-3,1.17-5.19,3.52-1.95,2.13-3.23,3.95-3.84,5.45Z"/></g></g></svg>